<?xml version="1.0" standalone="no"?>
<!DOCTYPE svg PUBLIC "-//W3C//DTD SVG 20010904//EN"
 "http://www.w3.org/TR/2001/REC-SVG-20010904/DTD/svg10.dtd">
<svg version="1.0" xmlns="http://www.w3.org/2000/svg"
 width="260.000000pt" height="260.000000pt" viewBox="0 0 260.000000 260.000000"
 preserveAspectRatio="xMidYMid meet">
<metadata>
Created by potrace 1.11, written by Peter Selinger 2001-2013
</metadata>
<g transform="translate(0.000000,260.000000) scale(0.100000,-0.100000)"
fill="#000000" stroke="none">
<path d="M0 1300 l0 -1300 1300 0 1300 0 0 1300 0 1300 -1300 0 -1300 0 0
-1300z m245 90 c9 -68 15 -90 23 -90 4 0 24 26 44 58 82 128 134 168 158 123
18 -35 11 -56 -47 -134 -64 -85 -124 -178 -141 -219 -8 -20 -19 -28 -37 -28
-50 0 -72 74 -90 297 -4 59 -2 75 12 88 16 16 18 15 44 -16 18 -21 30 -51 34
-79z m449 96 c24 -10 36 -22 40 -43 3 -15 10 -54 16 -85 8 -43 16 -58 28 -58
21 -1 52 -23 52 -39 0 -6 -9 -16 -20 -23 -14 -9 -20 -24 -20 -49 0 -76 -77
-120 -114 -64 -20 30 -20 35 -2 35 8 0 18 5 21 10 13 21 -6 27 -52 18 -43 -10
-48 -9 -65 12 l-18 22 -15 -36 c-8 -19 -15 -39 -15 -42 0 -15 -34 -44 -51 -44
-10 0 -26 11 -34 24 -14 22 -14 28 4 72 44 112 113 234 131 234 10 0 31 15 47
34 15 19 29 35 31 35 1 1 18 -5 36 -13z m516 -22 c23 -44 17 -131 -11 -179
-57 -95 -184 -195 -231 -181 -7 2 -25 7 -40 10 -23 5 -58 48 -58 71 -1 3 -3
12 -7 21 -8 23 3 184 16 217 14 35 36 33 65 -6 18 -24 20 -40 18 -108 -3 -78
-3 -79 21 -79 32 0 99 49 125 92 12 19 29 64 38 99 9 35 18 68 21 72 8 14 28
1 43 -29z m330 14 c49 -36 40 -58 -44 -101 -72 -37 -186 -140 -186 -168 0 -14
108 -7 173 11 l37 11 -15 29 c-20 39 -19 47 8 65 22 14 27 13 73 -11 27 -15
57 -34 67 -43 24 -20 34 -4 42 69 8 73 22 125 39 139 10 9 19 2 41 -30 25 -38
26 -47 20 -105 -8 -73 -8 -73 72 -49 l50 15 12 77 c7 43 15 86 17 96 9 31 33
18 60 -35 22 -44 25 -60 20 -105 -3 -29 -13 -72 -22 -96 -9 -23 -17 -57 -18
-76 -2 -31 -34 -71 -57 -71 -19 0 -49 46 -49 76 l0 33 -46 -16 c-33 -11 -52
-25 -67 -50 -37 -64 -100 -64 -112 0 l-6 32 -102 -32 c-221 -72 -297 -54 -322
74 -12 58 61 145 199 240 34 22 67 41 74 42 7 1 26 -9 42 -21z m850 5 c40 -23
52 -54 35 -87 -8 -14 -17 -47 -20 -73 -14 -104 -55 -182 -106 -203 -28 -12
-32 -10 -61 16 -17 16 -39 42 -49 58 l-18 29 -28 -59 c-20 -42 -34 -59 -47
-59 -23 0 -55 49 -57 86 -1 13 28 86 64 162 74 152 85 161 132 105 20 -24 25
-38 20 -57 -12 -48 -18 -161 -8 -161 24 0 73 98 73 144 0 18 32 116 37 116 3
0 18 -7 33 -17z"/>
<path d="M616 1313 c-29 -42 -21 -51 31 -38 21 5 24 10 18 33 -11 45 -22 46
-49 5z"/>
</g>
</svg>
